<svg width="96" height="31" viewBox="0 0 96 31" fill="none" xmlns="http://www.w3.org/2000/svg">
<path fill-rule="evenodd" clip-rule="evenodd" d="M28.0044 21.4493C28.0538 21.5724 28.1033 21.6954 28.1528 21.8151C28.5386 22.9222 28.6573 23.9694 28.4199 25.0166C28.0934 27.2308 26.6391 29.1457 24.5615 29.9835C23.8195 30.3126 22.9885 30.4622 22.1574 30.4622C21.92 30.4622 21.6232 30.4323 21.3858 30.4024C20.4063 30.2827 19.3972 29.9536 18.4178 29.3851C17.2306 28.6969 16.0434 27.7095 14.7374 26.2733C13.4315 27.7095 12.274 28.6969 11.0571 29.3851C10.0777 29.9536 9.06858 30.2827 8.08914 30.4024C7.8517 30.4323 7.5549 30.4622 7.31746 30.4622C6.48643 30.4622 5.68507 30.3126 4.91339 29.9835C2.86547 29.1457 1.38148 27.2607 1.055 25.0166C0.906598 23.9395 1.02532 22.8922 1.41116 21.7852C1.55956 21.3962 1.70796 21.0371 1.85636 20.708C1.9646 20.4625 2.07285 20.2232 2.17829 19.9901L2.17835 19.9899L2.17838 19.9899C2.30418 19.7117 2.42598 19.4425 2.53899 19.1821L2.56867 19.1222C4.61659 14.6341 6.84259 10.0861 9.12794 5.59799L9.21698 5.41847C9.45442 4.96965 9.69186 4.49092 9.9293 4.01219C10.2261 3.47361 10.5526 2.90511 10.9978 2.36654C11.9772 1.22955 13.3128 0.571289 14.7968 0.571289C16.2511 0.571289 17.6164 1.22955 18.5662 2.42638C19.0041 2.92303 19.2906 3.44513 19.5652 3.94574L19.6346 4.07203C19.8721 4.55076 20.1095 5.02949 20.347 5.47831L20.436 5.65783C22.751 10.146 24.9473 14.6939 26.9953 19.1821L27.0249 19.212C27.138 19.4724 27.2598 19.7417 27.3856 20.0199C27.491 20.253 27.5993 20.4924 27.7076 20.7379C27.8065 20.9573 27.9054 21.2033 28.0043 21.4493L28.0044 21.4493ZM51.0654 8.08157C51.0654 9.15872 50.2047 10.0264 49.1362 10.0264C48.0677 10.0264 47.207 9.15872 47.207 8.08157C47.207 7.00442 48.0381 6.13672 49.1362 6.13672C50.2344 6.16664 51.0654 7.03434 51.0654 8.08157ZM43.1115 12.0013V12.48C43.1115 12.48 42.1914 11.2832 40.2325 11.2832C36.9974 11.2832 34.4746 13.7666 34.4746 17.2075C34.4746 20.6185 36.9677 23.1319 40.2325 23.1319C42.2211 23.1319 43.1115 21.9051 43.1115 21.9051V22.4138C43.1115 22.6531 43.2896 22.8326 43.527 22.8326H45.9311V11.5824H43.527C43.2896 11.5824 43.1115 11.7919 43.1115 12.0013ZM40.7073 20.4385C41.7758 20.4385 42.6662 19.87 43.1114 19.2117V15.2023C42.6959 14.574 41.7461 13.9756 40.7073 13.9756C38.8078 13.9756 37.3535 15.1724 37.3535 17.207C37.3535 19.2417 38.8078 20.4385 40.7073 20.4385ZM47.7119 11.582H50.5612V22.8323H47.7119V11.582ZM87.3932 12.4803C87.3932 12.4803 88.3133 11.2835 90.2722 11.2835C93.4776 11.2835 96.0004 13.7968 96.0004 17.2078C96.0004 20.6188 93.4776 23.1321 90.2425 23.1321C88.2836 23.1321 87.3635 21.9054 87.3635 21.9054V22.414C87.3635 22.6235 87.1855 22.8329 86.948 22.8329H84.5439V6.16699H87.3932V12.4803ZM89.7986 20.4092C88.7004 20.4092 87.8397 19.8407 87.3945 19.1824V15.173C87.8397 14.5746 88.7895 13.9463 89.7986 13.9463C91.6981 13.9463 93.1524 15.1431 93.1524 17.1777C93.1524 19.2124 91.6981 20.4092 89.7986 20.4092ZM83.0605 22.8626V16.1603C83.0605 14.2753 82.6746 13.1981 81.6655 12.3604C80.8345 11.6423 79.7957 11.2832 78.5491 11.2832C77.451 11.2832 76.3528 11.6123 75.5218 12.48V12.0013C75.5218 11.7919 75.3437 11.5824 75.1063 11.5824H72.8506V22.8326H75.6999V14.9934C76.2638 14.3351 77.1542 13.8863 78.0149 13.8863C79.6176 13.8863 80.2112 14.6343 80.2112 16.4894V22.8626H83.0605ZM65.9353 11.2835C63.9764 11.2835 63.0563 12.4803 63.0563 12.4803V6.16699H60.207V22.8329H62.6111C62.8485 22.8329 63.0266 22.6235 63.0266 22.414V21.9054C63.0266 21.9054 63.9467 23.1321 65.9056 23.1321C69.1407 23.1321 71.6635 20.6188 71.6635 17.2078C71.6932 13.7968 69.1704 11.2835 65.9353 11.2835ZM63.0566 19.1824C63.5018 19.8407 64.3626 20.4092 65.4607 20.4092C67.3602 20.4092 68.8146 19.2124 68.8146 17.1777C68.8146 15.1431 67.3602 13.9463 65.4607 13.9463C64.4516 13.9463 63.5018 14.5746 63.0566 15.173V19.1824ZM57.7435 11.2832C58.6043 11.2832 59.0495 11.4328 59.0495 11.4328V14.0958C59.0495 14.0958 56.6751 13.2879 55.1911 14.9934V22.8626H52.3418V11.5824H54.7459C54.9833 11.5824 55.1614 11.7919 55.1614 12.0013V12.48C55.6956 11.8517 56.8531 11.2832 57.7435 11.2832ZM14.7667 23.3718C13.164 21.3372 12.1252 19.4223 11.769 17.8066C11.6206 17.1184 11.5909 16.52 11.68 15.9814C11.7393 15.5027 11.9174 15.0838 12.1548 14.7247C12.7188 13.9169 13.6685 13.4082 14.7667 13.4082C15.8648 13.4082 16.8443 13.8869 17.3785 14.7247C17.616 15.0838 17.794 15.5027 17.8534 15.9814C17.9424 16.52 17.9128 17.1483 17.7644 17.8066C17.4082 19.3924 16.3694 21.3073 14.7667 23.3718ZM23.9084 28.2778C25.3627 27.6794 26.4015 26.333 26.6092 24.7771C26.728 23.9991 26.6389 23.2511 26.4015 22.4732C26.3396 22.2653 26.2491 22.0573 26.1498 21.8293C26.1062 21.7292 26.0609 21.6252 26.0156 21.5157C25.8969 21.2763 25.7856 21.022 25.6743 20.7677C25.563 20.5134 25.4517 20.259 25.333 20.0197V19.9897C23.2851 15.5315 21.0888 10.9836 18.8331 6.52537L18.7441 6.34585C18.6254 6.12145 18.5066 5.88958 18.3879 5.65771C18.2692 5.42581 18.1505 5.19391 18.0317 4.96949C17.7943 4.49075 17.5272 4.04194 17.2007 3.65297C16.5774 2.93487 15.7464 2.5459 14.8263 2.5459C13.9062 2.5459 13.0752 2.93487 12.4519 3.65297C12.1254 4.04194 11.8583 4.49075 11.6209 4.96949C11.5022 5.19389 11.3834 5.42578 11.2647 5.65767C11.146 5.88955 11.0273 6.12144 10.9086 6.34585L10.8195 6.52537C8.53417 10.9537 6.33785 15.5016 4.28994 19.9598L4.26026 20.0197L4.2602 20.0198C4.02278 20.5284 3.78536 21.037 3.57762 21.5157C3.53235 21.6252 3.48707 21.7292 3.44349 21.8293C3.3442 22.0573 3.25365 22.2652 3.19178 22.4732C2.89498 23.311 2.83562 24.059 2.92466 24.807C3.13242 26.3629 4.17122 27.7093 5.62553 28.3077C6.30817 28.577 7.07985 28.6967 7.88121 28.607C8.62321 28.5172 9.3652 28.2778 10.1369 27.829C11.2054 27.2306 12.3035 26.303 13.5204 24.9267C11.5912 22.5031 10.3743 20.259 9.92912 18.2843C9.69168 17.3866 9.662 16.5189 9.78072 15.741C9.89944 14.993 10.1666 14.3048 10.5821 13.7064C11.5022 12.3899 13.0455 11.582 14.767 11.582C16.4884 11.582 18.0317 12.3599 18.9518 13.7064C19.3673 14.3048 19.6345 14.993 19.7532 15.741C19.8422 16.5189 19.8125 17.3567 19.6048 18.2843C19.1596 20.259 17.9724 22.4732 16.0135 24.8968C17.2601 26.2731 18.3285 27.2007 19.397 27.7991C20.1687 28.2479 20.9107 28.4873 21.6527 28.577C22.4244 28.6668 23.1961 28.577 23.9084 28.2778Z" fill="white"/>
</svg>
