<svg width="175" height="30" viewBox="0 0 175 30" fill="none" xmlns="http://www.w3.org/2000/svg">
<g id="Frame" clip-path="url(#clip0_5_149704)">
<path id="Vector" d="M52.5879 12.0781H54.468V19.3737H64.7435V12.0781H66.6021V28.8817H64.7435V21.1178H54.468V28.8814H52.5879V12.0781Z" fill="black"/>
<path id="Vector_2" d="M68.8672 23.3299C68.8672 19.9053 71.1744 17.4805 74.4216 17.4805C77.6687 17.4805 79.9759 19.9053 79.9759 23.3299C79.9759 26.7755 77.669 29.2217 74.4216 29.2217C71.1744 29.2217 68.8672 26.7758 68.8672 23.3299ZM78.1176 23.3299C78.1176 20.8201 76.5794 19.0546 74.4218 19.0546C72.264 19.0546 70.7473 20.8201 70.7473 23.3299C70.7473 25.861 72.264 27.6478 74.4218 27.6478C76.5792 27.6478 78.1176 25.861 78.1176 23.3299Z" fill="black"/>
<path id="Vector_3" d="M81.9844 17.8208H83.8218V19.8203C84.6124 18.4164 85.9368 17.4805 87.7742 17.4805C89.7396 17.4805 91.0002 18.3314 91.5341 20.0116C92.4313 18.4588 93.9269 17.4805 95.8066 17.4805C98.4773 17.4805 99.8658 19.0971 99.8658 22.1599V28.8813H98.0286V22.2238C98.0286 20.2881 97.0673 19.0546 95.3795 19.0546C93.2645 19.0546 91.8333 20.9264 91.8333 23.5V28.8813H89.9959V22.2238C89.9959 20.2881 89.056 19.0546 87.3685 19.0546C85.2321 19.0546 83.8221 20.9264 83.8221 23.5V28.8813H81.9847L81.9844 17.8208Z" fill="black"/>
<path id="Vector_4" d="M101.92 23.3299C101.92 19.9053 104.227 17.4805 107.517 17.4805C110.123 17.4805 112.43 19.4161 112.43 23.1383V23.9465H103.821C103.971 26.1586 105.317 27.6901 107.474 27.6901C109.119 27.6901 110.23 26.7117 110.465 25.7758H112.281C111.939 27.6262 110.081 29.2215 107.517 29.2215C104.227 29.2217 101.92 26.7758 101.92 23.3299ZM110.593 22.4578C110.508 20.4158 109.205 19.0546 107.453 19.0546C105.402 19.0546 104.12 20.3947 103.842 22.4578H110.593Z" fill="black"/>
<path id="Vector_5" d="M116.486 27.0524V28.8817H114.648V12.0781H116.486V19.6502C117.276 18.289 118.558 17.4806 120.16 17.4806C123.087 17.4806 125.181 19.9054 125.181 23.3086C125.181 26.7756 123.087 29.2218 120.16 29.2218C118.558 29.2432 117.276 28.4136 116.486 27.0524ZM123.343 23.33C123.343 20.8201 121.912 19.0547 119.861 19.0547C117.832 19.0547 116.379 20.8201 116.379 23.33C116.379 25.8611 117.832 27.6479 119.861 27.6479C121.912 27.6479 123.343 25.8611 123.343 23.33Z" fill="black"/>
<path id="Vector_6" d="M126.719 23.3299C126.719 19.9053 129.026 17.4805 132.273 17.4805C135.52 17.4805 137.827 19.9053 137.827 23.3299C137.827 26.7755 135.521 29.2217 132.273 29.2217C129.026 29.2217 126.719 26.7758 126.719 23.3299ZM135.969 23.3299C135.969 20.8201 134.431 19.0546 132.273 19.0546C130.116 19.0546 128.599 20.8201 128.599 23.3299C128.599 25.861 130.116 27.6478 132.273 27.6478C134.431 27.6478 135.969 25.861 135.969 23.3299Z" fill="black"/>
<path id="Vector_7" d="M149.374 28.8808H147.537V26.8813C146.746 28.2853 145.422 29.2209 143.585 29.2209C140.914 29.2209 139.525 27.6043 139.525 24.5415V17.8203H141.363V24.4779C141.363 26.4135 142.303 27.647 144.012 27.647C146.127 27.647 147.537 25.7752 147.537 23.2016V17.8203H149.374V28.8808H149.374Z" fill="black"/>
<path id="Vector_8" d="M152.021 17.8208H153.859V19.8203C154.649 18.4164 155.974 17.4805 157.811 17.4805C160.503 17.4805 161.87 19.0971 161.87 22.1599V28.8813H160.033V22.2238C160.033 20.2881 159.093 19.0546 157.405 19.0546C155.269 19.0546 153.859 20.9264 153.859 23.5V28.8813H152.022V17.8208H152.021Z" fill="black"/>
<path id="Vector_9" d="M163.9 23.3088C163.9 19.9056 165.994 17.4808 168.921 17.4808C170.523 17.4808 171.805 18.289 172.595 19.6505V12.0781H174.433V28.8817H172.595V27.0524C171.805 28.4136 170.523 29.2432 168.921 29.2221C165.994 29.2218 163.9 26.7758 163.9 23.3088ZM172.702 23.3299C172.702 20.8201 171.249 19.0547 169.22 19.0547C167.169 19.0547 165.738 20.8201 165.738 23.3299C165.738 25.8611 167.169 27.6479 169.22 27.6479C171.249 27.6479 172.702 25.8611 172.702 23.3299Z" fill="black"/>
<path id="Vector_10" d="M46.7596 28.8723H0.971584L0.902344 12.0856L23.1639 0.566406L42.8707 11.7808L41.9833 13.327L23.1233 2.59438L2.69518 13.1647L2.75267 27.0916H46.7596V28.8723Z" fill="black"/>
</g>
<defs>
<clipPath id="clip0_5_149704">
<rect width="174" height="29" fill="black" transform="translate(0.5 0.5)"/>
</clipPath>
</defs>
</svg>
